<svg version="1.2" xmlns="http://www.w3.org/2000/svg" viewBox="0 0 512 512" width="512" height="512">
	<style>
		.s0 { fill: #000000 } 
	</style>
	<g id="Layer 1">
		<path id="Path 0" fill-rule="evenodd" class="s0" d="m136.32 117.53c-1.55 0.7-32.85 31.35-69.56 68.12-62.88 62.98-66.75 67.05-66.75 70.35 0 3.3 3.86 7.36 66.75 70.31 36.71 36.75 67.64 67.31 68.74 67.91 1.1 0.6 3.35 1.04 5 0.97 2.38-0.1 4.9-2.04 12.23-9.41 5.07-5.1 9.46-10.29 9.75-11.53 0.28-1.24 0.05-3.49-0.53-5-0.58-1.51-25.89-27.61-56.25-58l-55.2-55.25c85.56-85.64 110.87-111.74 111.45-113.25 0.58-1.51 0.81-3.76 0.53-5-0.29-1.24-4.68-6.36-9.75-11.38-5.08-5.01-10.21-9.34-11.41-9.61-1.19-0.28-3.44 0.07-5 0.77zm234.02-0.74c-1.01 0.21-5.99 4.51-11.07 9.55-5.07 5.04-9.46 10.17-9.75 11.41-0.28 1.24-0.05 3.49 0.53 5 0.58 1.51 25.89 27.61 56.25 58l55.2 55.25c-85.56 85.64-110.87 111.74-111.45 113.25-0.58 1.51-0.81 3.76-0.53 5 0.29 1.24 4.68 6.43 9.75 11.53 7.33 7.37 9.85 9.31 12.23 9.41 1.65 0.07 3.9-0.37 5-0.97 1.1-0.61 31.82-30.94 68.26-67.41 61.51-61.55 66.31-66.6 66.86-70.31l0.59-4c-107.61-107.44-135.78-134.82-137.37-135.3-1.47-0.44-3.49-0.62-4.5-0.41zm-76.25-50.04c-2.73 2.54-6.9 16.42-55.2 183.75-28.74 99.55-52.28 182.45-52.32 184.22-0.04 1.95 0.72 4.04 1.93 5.29 1.18 1.22 6.3 3.28 12.5 5.04 5.78 1.63 11.29 2.97 12.25 2.96 0.96-0.01 3.07-1.25 4.68-2.76 2.7-2.53 7.04-17 55.18-183.75 28.74-99.55 52.28-182.45 52.32-184.22 0.04-1.95-0.72-4.04-1.93-5.29-1.18-1.22-6.3-3.28-12.5-5.04-5.77-1.63-11.28-2.97-12.23-2.96-0.96 0.01-3.06 1.25-4.68 2.76z"/>
	</g>
</svg>